<?xml version="1.0" encoding="utf-8"?>
<!-- Generator: Adobe Illustrator 19.0.1, SVG Export Plug-In . SVG Version: 6.00 Build 0)  -->
<!DOCTYPE svg PUBLIC "-//W3C//DTD SVG 1.1//EN" "http://www.w3.org/Graphics/SVG/1.1/DTD/svg11.dtd">
<svg version="1.1" id="drinks" xmlns="http://www.w3.org/2000/svg" xmlns:xlink="http://www.w3.org/1999/xlink" x="0px" y="0px"
	 width="512px" height="512px" viewBox="0 0 512 512" enable-background="new 0 0 512 512" xml:space="preserve">
<g id="Juice">
	<g>
		<g>
			<path fill="#EFEBE9" d="M428.1,87.2c0-18.1-17.2-34.5-45.4-46.8C351.2,26.6,306.1,18,256,18c-50.1,0-95.2,8.6-126.6,22.4
				c-28.2,12.3-45.4,28.8-45.4,46.8c0,2.1,0.2,4.2,0.7,6.2l39,347.4c0,13.9,13.2,26.5,34.9,36c24.2,10.6,58.9,17.2,97.4,17.2
				c38.5,0,73.2-6.6,97.4-17.2c21.7-9.5,34.9-22.1,34.9-36l39-347.4C427.8,91.4,428.1,89.3,428.1,87.2z"/>
		</g>
		<g>
			<path fill="#F57F17" d="M386.3,184.2c0-13.7-13-26.1-34.4-35.5c-23.8-10.4-58-16.9-95.9-16.9c-37.9,0-72.1,6.5-95.9,16.9
				c-21.4,9.3-34.4,21.8-34.4,35.5c0,1.6,0.2,3.2,0.5,4.7l24.5,217.6c0,11.1,10.5,21.1,27.8,28.7c19.2,8.4,46.8,13.7,77.5,13.7
				c30.7,0,58.2-5.3,77.5-13.7c17.3-7.5,27.8-17.6,27.8-28.7L385.8,189C386.1,187.4,386.3,185.8,386.3,184.2z"/>
		</g>
		<g>
			<path fill="#F9A825" d="M125.7,184.2c0,13.7,13,26.1,34.4,35.5c23.8,10.4,58,16.9,95.9,16.9c37.9,0,72.1-6.5,95.9-16.9
				c21.4-9.3,34.4-21.8,34.4-35.5c0-13.7-13-26.1-34.4-35.5c-23.8-10.4-58-16.9-95.9-16.9c-37.9,0-72.1,6.5-95.9,16.9
				C138.8,158.1,125.7,170.5,125.7,184.2z"/>
		</g>
	</g>
	<g>
		<g>
			<path fill="#78909C" d="M256,502c-38.5,0-74.3-6.4-100.6-17.9c-25.4-11.1-39.5-26.3-39.7-42.9L76.7,94.7c-0.5-2.5-0.8-5-0.8-7.5
				c0-20.8,17.8-40,50.2-54.2c34-14.8,80.1-23,129.8-23c49.8,0,95.9,8.2,129.8,23c32.4,14.1,50.2,33.4,50.2,54.2
				c0,2.5-0.3,5-0.8,7.5l-38.9,346.5c-0.3,16.6-14.4,31.8-39.7,42.9C330.2,495.7,294.5,502,256,502z M256,26
				c-46.9,0-91.9,7.9-123.4,21.7C106.8,59,91.9,73.4,91.9,87.2c0,1.5,0.2,3,0.5,4.5l0.1,0.8l39.1,347.8v0.4c0,9.9,11,20.3,30.1,28.7
				c24,10.5,58.4,16.5,94.2,16.5c35.8,0,70.2-6,94.2-16.5c19.2-8.4,30.1-18.8,30.1-28.7l0-0.9l39.1-347.8l0.1-0.4
				c0.3-1.5,0.5-3,0.5-4.5c0-13.8-14.8-28.2-40.6-39.5C347.9,33.9,302.9,26,256,26z"/>
		</g>
		<g>
			<path fill="#78909C" d="M256,146.4c-40.8,0-80.2-6.3-108-17.1c-26.3-10.3-40.7-24.2-40.7-39c0-14.9,14.5-28.8,40.7-39
				C175.8,40.3,215.2,34,256,34c40.8,0,80.2,6.3,108,17.1c26.3,10.3,40.7,24.2,40.7,39c0,14.9-14.5,28.8-40.7,39
				C336.2,140.1,296.8,146.4,256,146.4z M256,42c-39.9,0-78.2,6.1-105,16.6c-22.7,8.9-35.7,20.4-35.7,31.6s13,22.7,35.7,31.6
				c26.9,10.5,65.2,16.6,105,16.6c39.9,0,78.2-6.1,105-16.6c22.7-8.9,35.7-20.4,35.7-31.6s-13-22.7-35.7-31.6
				C334.2,48.1,295.9,42,256,42z"/>
		</g>
		<g>
			<path fill="#78909C" d="M256,452.9c-29.9,0-58.7-5.1-79.1-14c-19.3-8.5-30.1-19.8-30.2-32.1l-24.4-217.2
				c-0.4-1.8-0.6-3.6-0.6-5.4c0-14.9,13.1-28.8,36.8-39.1c25.1-11,60.6-17.3,97.5-17.3c36.9,0,72.4,6.3,97.5,17.3
				c23.7,10.4,36.8,24.3,36.8,39.1c0,1.8-0.2,3.6-0.6,5.4l-24.4,217.2c-0.1,12.2-10.8,23.6-30.2,32.1
				C314.7,447.8,285.9,452.9,256,452.9z M256,135.8c-35.8,0-70.2,6.1-94.3,16.6c-20.6,9-32,20.3-32,31.8c0,1.3,0.1,2.6,0.4,3.9
				l0.1,0.4l24.5,217.8v0.2c0,8.8,9.3,17.9,25.4,25c19.4,8.5,47.1,13.3,75.9,13.3c28.8,0,56.5-4.9,75.9-13.3
				c16.1-7.1,25.4-16.2,25.4-25l0-0.4l24.5-217.8l0-0.2c0.3-1.3,0.4-2.6,0.4-3.9c0-11.5-11.4-22.8-32-31.8
				C326.2,141.9,291.8,135.8,256,135.8z"/>
		</g>
		<g>
			<path fill="#78909C" d="M256,240.6c-36.9,0-72.4-6.3-97.5-17.3c-23.7-10.4-36.8-24.3-36.8-39.1c0-14.9,13.1-28.8,36.8-39.1
				c25.1-11,60.6-17.3,97.5-17.3c36.9,0,72.4,6.3,97.5,17.3c23.7,10.4,36.8,24.3,36.8,39.1c0,14.9-13.1,28.8-36.8,39.1
				C328.4,234.3,292.9,240.6,256,240.6z M256,135.8c-35.8,0-70.2,6.1-94.3,16.6c-20.6,9-32,20.3-32,31.8c0,11.5,11.4,22.8,32,31.8
				c24.1,10.5,58.5,16.6,94.3,16.6c35.8,0,70.2-6.1,94.3-16.6c20.6-9,32-20.3,32-31.8c0-11.5-11.4-22.8-32-31.8
				C326.2,141.9,291.8,135.8,256,135.8z"/>
		</g>
		<g>
			<g opacity="0.5">
				<path fill="#FFFFFF" d="M291.2,149.2c-5.6,0.3-12.4,0.5-20.2,0.6c-7.8,0-16.6-0.1-26.2-0.6c-4.8-0.2-9.8-0.6-14.9-1.1
					c-5.1-0.5-10.5-1-15.9-1.7c-5.4-0.7-11-1.5-16.7-2.6c-2.8-0.5-5.7-1.1-8.5-1.6c-2.9-0.6-5.8-1.2-8.7-1.9
					c-5.8-1.3-11.6-2.9-17.5-4.7c-2.9-0.9-5.8-1.9-8.7-2.9c-2.9-1-5.8-2.1-8.6-3.3c-5.7-2.4-11.4-5-16.7-8.1
					c-5.3-3.1-10.4-6.7-14.7-10.8c-2.1-2.1-4.1-4.3-5.7-6.7c-0.9-1.2-1.5-2.4-2.2-3.7l-0.8-1.9l-0.2-0.5l-0.2-0.5l-0.3-1l-0.3-1
					l-0.2-0.9l-0.2-0.9l-0.1-0.4c0-0.2,0-0.4,0-0.6l-0.1-2.2c0,0,0,0,0,0l0-0.1l0-0.3l0-0.5l0.1-1c0.3-2.7,1-5.3,2.2-7.8
					c0.3-0.6,0.7-1.2,1-1.8l0.5-0.9l0.6-0.9c0.4-0.6,0.8-1.2,1.2-1.8l1.3-1.7c0.4-0.6,0.9-1.1,1.4-1.6l1.5-1.6c1.1-1,2.1-2,3.2-3
					c4.5-3.8,9.4-7.1,14.5-9.9c1.3-0.7,2.6-1.4,3.8-2c1.3-0.6,2.5-1.3,3.9-1.9l2-0.9l1-0.5l0.4-0.2l0.5-0.2c1.3-0.6,2.6-1.1,3.9-1.7
					c5.3-2.1,10.5-4.1,15.7-5.7c10.4-3.3,20.5-5.8,29.9-7.7c18.8-3.7,34.8-5.5,45.9-6.4c5.6-0.4,10-0.8,13-0.9
					c3-0.2,4.6-0.3,4.6-0.3s-1.6-0.1-4.6-0.2c-3-0.1-7.4-0.2-13.1-0.2c-5.6,0.1-12.5,0.1-20.4,0.7c-7.9,0.5-16.7,1.3-26.3,2.8
					c-9.6,1.4-20,3.5-30.8,6.5c-5.4,1.5-10.9,3.3-16.4,5.3c-1.4,0.5-2.8,1.1-4.2,1.6l-0.5,0.2l-0.6,0.2l-1,0.4l-2,0.9
					c-1.3,0.6-2.8,1.3-4.2,1.9c-1.4,0.6-2.8,1.4-4.2,2.1c-5.5,2.9-10.9,6.3-16,10.4c-5.1,4.1-9.8,9.2-12.9,15.6
					c-1.6,3.2-2.6,6.8-3,10.4l-0.1,1.4l0,0.7l0,0.3l0,0.2c0-0.2,0,0.4,0,0.4l0.1,2.4c0,0.2,0,0.4,0,0.6l0.1,0.7l0.2,1.5
					c0.1,0.5,0.2,1,0.3,1.4l0.4,1.3c0.5,1.8,1.2,3.4,1.9,5.1c0.9,1.6,1.7,3.2,2.7,4.6c1.9,3,4.3,5.6,6.7,8c1,0.9,1.9,1.8,2.9,2.6
					c0,0-7,54.2,14.4,130.9c22.2,79.6,4.6,134,16,168c11.3,34,40,41.3,45.3,41.3s15.3,4.7,20,0c4.7-4.7-29.4-63.8-38-100.7
					c-8.5-36.4,3.9-75.1,16-107.3c14.9-39.6-4.3-91.2-9.9-104.7c1.2,0.3,2.3,0.5,3.5,0.8c3,0.6,6,1.2,8.9,1.7c1.5,0.3,3,0.5,4.4,0.8
					c1.5,0.2,2.9,0.4,4.4,0.7c5.8,0.8,11.5,1.5,17,2c11.1,1,21.6,1.4,31.3,1.4c9.7,0.1,18.6-0.3,26.4-0.9c7.9-0.5,14.7-1.3,20.3-2
					c5.6-0.7,10-1.5,12.9-2c1.5-0.2,2.6-0.5,3.4-0.6c0.8-0.1,1.2-0.2,1.2-0.2s-1.6,0.1-4.6,0.4C301.2,148.6,296.8,148.9,291.2,149.2
					z"/>
			</g>
			<g>
				<path fill="#FFFFFF" d="M416.3,89.9l-0.2-2.9c-0.2-1.1-0.4-2.3-0.6-3.5c-0.3-1.1-0.6-2.1-1-3.2c-0.4-1-0.9-2-1.3-3
					c-1-1.9-2-3.7-3.3-5.4l-0.9-1.2c-0.3-0.4-0.6-0.8-1-1.1c-0.7-0.7-1.3-1.5-2-2.2c-1.4-1.4-2.7-2.7-4.2-3.8
					c-1.4-1.2-2.9-2.2-4.3-3.2c-1.4-1-2.9-1.8-4.2-2.7c-1.4-0.8-2.8-1.5-4.1-2.2c-1.3-0.6-2.6-1.2-3.8-1.8c-1.2-0.5-2.4-1-3.5-1.5
					c-2.2-0.9-4.2-1.5-5.8-2.1c-1.6-0.5-2.9-0.8-3.8-1.1c-0.9-0.2-1.4-0.4-1.4-0.4s1.6,1.1,4.5,2.9c1.4,1,3.1,2,5.1,3.4
					c1,0.7,2,1.4,3.1,2.1c1,0.8,2.2,1.6,3.3,2.4c1.1,0.9,2.3,1.8,3.5,2.7c1.1,1,2.4,2,3.5,3c1.1,1.1,2.4,2.1,3.5,3.4
					c0.6,0.6,1.2,1.2,1.7,1.8c0.5,0.6,1.1,1.3,1.6,1.9c2.1,2.6,4,5.5,5.3,8.5c0.3,0.8,0.7,1.5,0.9,2.3c0.2,0.8,0.5,1.6,0.7,2.3
					c0.1,0.7,0.3,1.4,0.4,2.2l0.1,2.7l0,0l0,0.1l0,0.2l0,0.3l0,0.6l-0.1,1.2l-0.4,2.4c-0.2,0.8-0.5,1.6-0.7,2.4
					c-0.2,0.8-0.6,1.5-0.9,2.3c-1.4,3-3.2,5.9-5.3,8.5c-0.6,0.6-1.1,1.3-1.6,1.9c-0.5,0.6-1.2,1.2-1.7,1.8c-1.1,1.2-2.4,2.3-3.5,3.4
					c-1.2,1.1-2.4,2-3.5,3c-1.2,0.9-2.4,1.8-3.5,2.7c-1.2,0.8-2.3,1.6-3.3,2.4c-1.1,0.7-2.1,1.4-3.1,2.1c-1.9,1.3-3.6,2.4-5.1,3.4
					c-2.9,1.8-4.5,2.9-4.5,2.9s0.5-0.1,1.4-0.4c0.9-0.3,2.2-0.6,3.8-1.1c1.6-0.6,3.6-1.2,5.8-2.1c1.1-0.4,2.3-0.9,3.5-1.5
					c1.2-0.6,2.5-1.2,3.8-1.8c1.3-0.7,2.7-1.5,4.1-2.2c1.4-0.9,2.8-1.7,4.2-2.7c1.4-1,2.9-2,4.3-3.2c0.7-0.6,1.4-1.2,2.1-1.8
					c0.7-0.7,1.4-1.3,2.1-2c0.7-0.7,1.3-1.5,2-2.2c0.3-0.4,0.7-0.7,1-1.1l0.9-1.2c0.6-0.8,1.2-1.6,1.7-2.6l0.8-1.4
					c0.3-0.5,0.5-0.9,0.7-1.4c0.4-1,0.9-1.9,1.3-3c0.3-1,0.7-2.1,1-3.2c0.2-1.1,0.4-2.2,0.6-3.3l0.1-1.7l0.1-0.8l0-0.4l0-0.2l0-0.1
					l0-0.1C416.3,90.1,416.3,90.4,416.3,89.9z"/>
			</g>
			<g>
				<path fill="#FFFFFF" d="M115,118.3c0,0,0,16.1,0,24s1.6,28.8,6.7,36.6c5.9,9.1,43.9,29.1,39.3,18c-11.4-27.9,3.1-56-4.6-57.9
					C143.1,135.7,115,118.3,115,118.3z"/>
			</g>
			<g opacity="0.5">
				<path fill="#FFFFFF" d="M308.8,461.1c0,0,46.2-6.1,54.2-22.1s24.6-90,23.3-118c-3.3-20-24.1,60-38.7,90S308.8,461.1,308.8,461.1
					z"/>
			</g>
		</g>
	</g>
</g>
</svg>
