<?xml version="1.0" encoding="utf-8"?>
<!-- Generator: Adobe Illustrator 19.0.1, SVG Export Plug-In . SVG Version: 6.00 Build 0)  -->
<!DOCTYPE svg PUBLIC "-//W3C//DTD SVG 1.1//EN" "http://www.w3.org/Graphics/SVG/1.1/DTD/svg11.dtd">
<svg version="1.1" id="drinks" xmlns="http://www.w3.org/2000/svg" xmlns:xlink="http://www.w3.org/1999/xlink" x="0px" y="0px"
	 width="512px" height="512px" viewBox="0 0 512 512" enable-background="new 0 0 512 512" xml:space="preserve">
<g id="Soda">
	<g>
		<path fill="#E57373" d="M388.7,439.8c0.2-0.5,0.3-0.9,0.5-1.4c0,0,0,0,0,0c0.1-0.4,0.2-0.9,0.3-1.4c0-0.1,0-0.2,0-0.3
			c0.1-0.4,0.1-0.9,0.1-1.4h0V72.7c0-0.1,0-0.3,0-0.4c0-0.1-0.1-1.1-0.1-1.1c-0.2-1.6-0.7-3.3-1.5-4.9c0,0-0.7-1.2-1.1-1.8
			l-14.7-19.5C362.9,30,319.2,18.5,266,18c-1.1,0-2.1,0-3.2,0c-0.2,0-0.3,0-0.5,0h-0.8c-0.2,0-0.3,0-0.5,0c-1.1,0-2.1,0-3.2,0
			c-53.2,0.5-96.9,12-106.1,27.1L137,64.6c-0.4,0.6-1.1,1.8-1.1,1.8c-0.8,1.6-1.3,3.2-1.5,4.9l0,364.1h0c0,0.5,0,0.9,0.1,1.4
			c0,0.1,0,0.2,0,0.3c0.1,0.5,0.2,0.9,0.3,1.4c0,0,0,0,0,0c0.1,0.5,0.3,0.9,0.5,1.4c0,0,0,0.1,0,0.1c0.4,1.1,1,2.1,1.8,3.2
			l14.7,23.7c9.4,15.4,55,27.1,109.9,27.1h0.8c54.8,0,100.4-11.7,109.9-27.1l14.7-23.7c0.7-1.1,1.3-2.1,1.8-3.2
			C388.6,439.9,388.6,439.9,388.7,439.8z"/>
	</g>
	<g>
		<path fill="#D7CCC8" d="M389.5,72.4c0,20.8-57.1,37.7-127.6,37.7S134.3,93.2,134.3,72.4l0.1-1.1c0.2-1.6,0.7-3.3,1.5-4.9
			c0,0,0.7-1.2,1.1-1.8l14.7-19.5c9.2-15.1,53-26.6,106.1-27.1c1.1,0,2.1,0,3.2,0c0.2,0,0.3,0,0.5,0h0.8c0.2,0,0.3,0,0.5,0
			c1.1,0,2.1,0,3.2,0c53.2,0.5,96.9,12,106.1,27.1l14.7,19.5c0.4,0.6,1.1,1.8,1.1,1.8c0.8,1.6,1.3,3.2,1.5,4.9L389.5,72.4z"/>
	</g>
	<g opacity="0.2">
		<path fill="#FFFFFF" d="M143.2,53.8c-2.4,3.7,0.1,9,3.5,12.4c-5.4,8.1-7.9,12.1-9.1,16.5c12.6,11.2,45.4,21.3,83.1,25.1
			c-1-4.6-0.5-8.3,1.7-16.1c85.9,8.9,132.4-15.3,134.9-23.5C366.5,37.9,156.8,32.8,143.2,53.8z"/>
	</g>
	<g opacity="0.6">
		<path fill="#FFFFFF" d="M317.7,79.6c15.5-11.1-113-28.7-148.3-25.8c0,0-20.5-2.3-22.4,1.7c-1.6,3.5,1.2,10,13.1,18.9
			c-1.9,4.7-3.9,10.1-5.9,16.2c7,4.8,17.3,9.1,30.1,12.7c1.6-4,3.8-12.3,6.1-19.2C261.9,97.2,311,84.5,317.7,79.6z"/>
	</g>
	<g>
		<ellipse fill="#616161" cx="261.9" cy="51" rx="111.7" ry="33"/>
	</g>
	<g>
		<path fill="#A1887F" d="M368.9,59.5c-13.7-13.6-56.5-23.6-107-23.6c-50.6,0-93.3,9.9-107,23.6c0,0,20.6,24.6,107,24.6
			S368.9,59.5,368.9,59.5z"/>
	</g>
	<g>
		<path fill="#D7CCC8" d="M190.3,70.3c0,2.3,0.8,4.5,2.2,6.6c16.1,4,38.6,7.1,69.3,7.1c86.4,0,107-24.6,107-24.6
			c-10.6-10.5-38.5-18.9-74-22.1C236.6,38.4,190.3,52.8,190.3,70.3z"/>
	</g>
	<g>
		<path fill="#A1887F" d="M154.9,59.5c13.7-13.6,56.5-23.6,107-23.6c50.6,0,93.3,9.9,107,23.6l1,0c2.4-2.7,3.7-5.5,3.7-8.4
			c0-18.2-50-33-111.7-33S150.2,32.8,150.2,51c0,2.9,1.2,5.6,3.5,8.3L154.9,59.5z"/>
	</g>
	<g>
		<path fill="#A1887F" d="M134.3,438.4c0,0.5,0,0.9,0.1,1.4c0,0.1,0,0.2,0,0.3c0.1,0.5,0.2,0.9,0.3,1.4c0,0,0,0,0,0
			c0.1,0.5,0.3,0.9,0.5,1.4c0,0,0,0.1,0,0.1c0.4,1.1,1,2.1,1.8,3.2l14.7,20.7c9.4,15.4,55,27.1,109.9,27.1h0.8
			c54.8,0,100.4-11.7,109.9-27.1l14.7-20.7c0.7-1.1,1.3-2.1,1.8-3.2c0,0,0-0.1,0-0.1c0.2-0.5,0.3-0.9,0.5-1.4c0,0,0,0,0,0
			c0.1-0.4,0.2-0.9,0.3-1.4c0-0.1,0-0.2,0-0.3c0.1-0.4,0.1-0.9,0.1-1.4v-2.5c0,20.8-57.1,37.7-127.6,37.7s-127.6-16.9-127.6-37.7
			V438.4z"/>
	</g>
	<g>
		<path fill="#BCAAA4" d="M293.3,55.3c0.5-0.7,0.8-1.4,0.8-2.1c0-5.3-14.4-9.5-32.2-9.5c-17.8,0-32.2,4.3-32.2,9.5
			c0,0.7,0.2,1.3,0.7,2l5.8,8.6c1.8,3.7,12.6,6.6,25.7,6.6c13.2,0,24-2.9,25.7-6.7L293.3,55.3z"/>
	</g>
	<g>
		<polygon fill="#8D6E63" points="221.3,471.7 217.3,502.3 345,490.3 355.7,473.7 378.1,452.8 325.7,468.7 273,473.5 		"/>
	</g>
	<g>
		<ellipse fill="#BDBDBD" cx="261.9" cy="53.8" rx="18.4" ry="4"/>
	</g>
	<g>
		<path fill="#BDBDBD" d="M397.5,271v-13.9c0-1.1-1.5-1.4-1.9-0.4c-2.1,5.2-2.7,8.3-4.4,9.2c-1.5,0.9-2.4,0.8-3.5-2.7
			c-1.5-4.5-2.5-16.9-3-42.6c-0.1-5.7-0.9-10.4-1.6-12.7c-2-6.1-11.5-10.3-24.3-4c-2.5,1.2-4.7,3-5.7,5.2c-0.1,0.2-0.1,0.5-0.1,0.7
			c0.8,3,1.5,5.9,2.3,8.9c0.2,0.6-0.3,1.2-0.9,1.2c-1,0-2.2,0.4-4.1,1.3c-15.9,7.5-28.9,35.4-27.6,60.5c0,0.1,0,0.3-0.1,0.4
			c-5,13.6-11.1,23.4-15.8,25.2c-1.7,0.6-2.9,0.2-3.5-1.8c-1.4-4.6-2.4-40.1-2.7-59.9c0-0.1,0-0.1,0-0.2c6.3-31.2,7.3-41.7,4.8-49.9
			c-2.9-9.5-9.2-11.3-17.5-8.6c-15.2,4.9-24.2,23.9-19.9,50.6c2.2,13.4,4.1,32.2,5.5,45.2c0.3,2.8,0.5,7.2,0.9,12.3
			c0,0.1,0,0.3-0.1,0.4c-2.9,7.4-6.5,11.4-10.9,12.6c-1.4,0.4-2.7,0.3-3.5,0c-0.4-0.1-0.7-0.6-0.7-1c0.8-11.2,0.5-19-2.2-28
			c-2.6-8.6-9.5-18-17.4-16.3c-2.3,0.5-3.8,1.3-4.9,2.7c-0.5,0.5-1.3,0.5-1.7-0.1c-2.6-4.9-8.6-5.7-13.1-4.9
			c-17.1,2.9-28.4,26.7-25.8,54c0,0.2,0,0.4-0.1,0.5c-6.1,12.9-15.2,21.5-23.7,22.1c-7.3,0.4-11.4-4-14.4-15.2
			c-5.6-20.7-2.7-33.9,0.9-34c1.1,0,2.8,1.3,3.6,4.2c0.7,2.6,1.4,7.1,1.6,12.5c0,0.2,0.1,0.5,0.3,0.7c2.1,2.2,4.9,3.4,8.9,3.2
			c9-0.6,14.7-11.7,11.1-24.6c-3.4-12.3-11.9-18.9-24.6-18.5c-20,0.6-34.2,31-25.8,63.1c5.9,22.4,17.1,35.3,35.4,34.4
			c12.2-0.6,23.9-11.7,31.5-23.8c0.4-0.7,1.4-0.6,1.7,0c6.6,12.8,17.7,17.8,28.9,15.6c13.1-2.6,21.2-11.8,26.7-26
			c0.2-0.5,0.7-0.7,1.2-0.6c2.2,0.6,4.3,0.5,7.4-0.4c4.2-1.2,7.9-3.5,10.9-6.5c0.6-0.6,1.5-0.3,1.7,0.5c0.4,2.2,0.9,4.2,1.5,6
			c3,9.8,8.4,13.3,19.6,9.5c10.5-3.6,21.8-17.6,29.2-31.9c0.4-0.7,1.3-0.7,1.7-0.1c5.7,9.1,14.1,11.4,22.5,7.3
			c5.8-2.8,12.2-10,14.2-24.8c0.1-1.1,1.6-1.2,1.9-0.2c0.1,0.3,0.2,0.6,0.3,0.9c3.6,11.3,9.9,11.8,18.1,7.1c4.5-2.5,7-9.3,12-17.8
			c0.1-0.2,0.2-0.5,0.1-0.8C397.8,274.9,397.5,273,397.5,271z M232.3,329.3c-3.4,0.7-7.7-1.4-10.5-11c-4.3-15-1-33.9,7.7-42.9
			c0.6-0.7,1.8-0.2,1.7,0.8c-0.4,6.3,1.1,15.1,2.7,20.8c1.5,5.2,3.7,10.6,6.9,16.1c0.1,0.2,0.2,0.4,0.1,0.6
			C240.1,323,236.9,328.4,232.3,329.3z M357.8,280.4c-2.7,1.3-5.2,1.7-7.2-5c-4.1-12.9-0.5-30.5,6.2-41.2c0.5-0.8,1.7-0.5,1.8,0.4
			c1.8,12.4,3.5,24.8,5.3,37.2c0,0.2,0,0.3-0.1,0.5C362.4,276.2,360.3,279.2,357.8,280.4z M128.5,371c-12.2,5.4,43.3,33.4,102.1,12
			c18.6-6.7,136.6-61.6,159-56c12,3,11.6,57.7-7.2,53.3c-20-4.7,0-22.7-18.7-22c-48.9,1.7-106,51.4-179.8,51.3
			c-38.3,0-54.8-20.8-56.9-23.7c-0.1-0.2-0.2-0.5-0.2-0.7L128.5,371z M284.7,138.4c-2,3.7-2.1,10.5,2.7,12.7
			c11.6,5.3,17.3-9.3,17.3-14.7C304.7,131.1,292.7,123.7,284.7,138.4z M179,240c-2,3.7-0.8,15.8,4,18c11.6,5.3,7.9-8.7,7.9-14
			S187,225.3,179,240z M333.8,136.9c-5.5,8.2-4.8,18.1-1.5,26.1c8.4,20,26.4,7.9,27.4-11.9C361.1,125.1,343.2,122.9,333.8,136.9z
			 M134.8,229c3.7-3.6,28.3-24.7,84.2-14.2c0.6,0.1,1,0.8,0.7,1.4c-6.4,15,5.4,16.8,12.1,15.9c6.9-1,11.7-1,14.3-13.5
			c2.6-12.5,4-23.1-20.4-28.5c-24.7-5.5-89.6,13-93.5,30.4c0,0.2-0.1,0.3-0.2,0.5c-4.1,4.3-0.2,7.3,1.5,8.3
			C134,229.4,134.5,229.3,134.8,229z"/>
		<path fill="#616161" d="M183.9,411.7C183.9,411.7,183.8,411.7,183.9,411.7c-16.5,0-31-3.7-43.1-11.1c-9.4-5.7-14.2-11.7-15.5-13.4
			c-0.4-0.6-0.6-1.4-0.6-2.1l1.1-9c-0.3-0.5-0.6-0.9-0.8-1.3c-0.7-1.8-0.4-4.3,2.6-5.6l3.2-1.4l-0.8,7.1c0.5,0.5,1.2,1,2.1,1.7
			c11.9,8.2,53.1,20.8,97.8,4.6c4-1.5,13.1-5.3,24.6-10.3c56.8-24.4,118.9-50,135.6-45.8c9.7,2.4,11.5,27,7.9,41.7
			c-2.8,11.6-8.6,17.2-16,15.5c-11.8-2.8-11.5-10.3-11.4-15.3c0.1-2.4,0.2-4.4-0.9-5.4c-0.9-0.9-2.9-1.3-5.9-1.2
			c-21,0.8-44.3,10.8-69,21.5C262.4,395.8,225.8,411.7,183.9,411.7z M128.8,385.1c2.6,3.5,18.9,22.5,55,22.6c0,0,0,0,0,0
			c41.1,0,77.3-15.7,109.3-29.5c25-10.8,48.6-21,70.4-21.8c4.3-0.2,7.1,0.6,8.9,2.4c2.2,2.2,2.1,5.4,2,8.4c-0.2,5-0.3,9.3,8.3,11.3
			c6.7,1.6,9.9-7.2,11.2-12.6c1.7-7.1,2.1-16.2,0.9-23.9c-1.1-7.3-3.4-12.4-5.9-13c-16.8-4.2-95.3,29.4-133,45.6
			c-11.5,4.9-20.6,8.8-24.8,10.3c-44.8,16.3-87.9,4.7-101.8-5.4L128.8,385.1z M165.3,364.7c-17.2,0-29.1-12.1-35.5-35.9
			c-5.2-19.7-2.2-40.9,7.6-54c5.4-7.3,12.5-11.4,20-11.6c13.4-0.4,22.9,6.6,26.6,20c2.2,7.8,1.3,15.7-2.5,21.1
			c-2.6,3.6-6.2,5.8-10.3,6c-4.3,0.3-7.7-1-10.4-3.8c-0.5-0.5-0.8-1.2-0.8-2c-0.2-5.5-1-9.9-1.6-12.1c-0.5-1.7-1.2-2.4-1.6-2.7
			c-1.4,1.4-4.4,11.7,0.9,31.5c3.2,11.9,7.1,14.1,12.4,13.8c7.6-0.4,16.1-8.5,21.9-20.7c-2.5-28.3,9.5-52.8,27.5-55.9
			c5-0.9,11.2,0,14.5,4.7c1.3-1.2,2.9-1.9,5.1-2.4c4.3-0.9,8.6,0.7,12.5,4.9c3.1,3.3,5.7,7.9,7.2,12.8c2.9,9.6,3.1,17.8,2.4,27.8
			c0.4,0,1,0,1.6-0.2c3.8-1,6.9-4.7,9.5-11.2l-0.2-3.3c-0.2-3.6-0.4-6.6-0.6-8.7l-0.6-5.3c-1.4-12.6-3-28.2-4.9-39.8
			c-4.2-26.5,4.1-47.2,21.2-52.8c5.1-1.7,9.4-1.6,12.8,0.1c3.3,1.7,5.7,5,7.2,9.8c2.6,8.5,1.7,19-4.7,50.8
			c0.6,32.8,1.7,56.1,2.7,59.3c0.1,0.5,0.3,0.6,0.3,0.7c0,0,0.2,0,0.6-0.2c3.3-1.2,9.1-9.1,14.5-23.8c-1.3-25.8,11.9-54.3,28.8-62.2
			c1.5-0.7,2.6-1.1,3.6-1.3l-2-7.8c-0.2-0.7-0.1-1.4,0.2-2.1c1.5-3.1,4.5-5,6.7-6.1c7.4-3.7,14.6-4.4,20.2-2c3.5,1.5,5.9,4,6.9,7.2
			c0.8,2.4,1.7,7.2,1.7,13.3c0.4,23.2,1.4,37.3,2.9,42c0.3,0.8,0.5,1.3,0.6,1.6c0.6-0.3,1.3-2.3,2-4.3c0.4-1.1,0.9-2.4,1.5-3.9
			c0.5-1.4,1.9-2.1,3.4-1.8c1.4,0.3,2.4,1.5,2.4,2.9V271c0,1.7,0.3,3.5,0.8,5.2c0.2,0.8,0.1,1.7-0.3,2.4c-1.3,2.3-2.5,4.4-3.6,6.4
			c-3,5.6-5.4,10-9.2,12.1c-5.3,3-9.5,3.7-13,2.3c-2.9-1.2-5.2-3.7-7-7.9c-3,14.8-10.4,20.4-14.7,22.5c-9.1,4.4-18.1,1.9-24.1-6.7
			c-7,12.9-18.1,27.5-29.6,31.4c-6,2.1-10.7,2.2-14.3,0.3c-3.5-1.8-6.1-5.4-7.8-11.1c-0.4-1.3-0.8-2.8-1.1-4.5
			c-3.2,2.8-6.7,4.7-10.4,5.8c-3,0.8-5.3,1-7.5,0.6c-6.1,15.5-15,24-27.8,26.5c-12.2,2.4-23.4-3.2-30.2-15.1
			c-9.2,14.1-21.1,22.8-32.2,23.3C166.7,364.7,166,364.7,165.3,364.7z M158.7,267.1c-0.3,0-0.7,0-1.1,0c-6.3,0.2-12.2,3.7-16.9,10
			c-9.1,12.2-11.8,32.1-7,50.6c6.1,23,17,33.7,33.4,32.9c11.9-0.6,23.3-12.2,29.9-22.9c0.6-0.9,1.6-1.5,2.7-1.4c1.1,0,2,0.7,2.5,1.6
			c5.9,11.4,15.6,16.7,26.7,14.5c11.6-2.3,19.6-10.2,25.2-24.8c0.5-1.4,2.1-2.2,3.5-1.8c1.9,0.5,3.7,0.4,6.4-0.3c3.6-1,7-3,10-6
			c0.8-0.8,1.9-1.1,3-0.7c1.1,0.3,1.8,1.2,2.1,2.3c0.4,2.2,0.9,4.2,1.4,5.8c1.4,4.6,3.3,7.4,5.8,8.7c2.6,1.3,6.3,1.2,11.2-0.5
			c8.9-3,19.9-15.2,28.1-31c0.5-1,1.5-1.6,2.5-1.6c1.1,0,2.1,0.5,2.7,1.4c5,8,12.1,10.3,20,6.6c4-1.9,10.9-7.4,13.1-23.2
			c0.2-1.4,1.3-2.5,2.8-2.6c1.4-0.1,2.7,0.8,3.1,2.2c0.1,0.3,0.2,0.6,0.3,0.8c1.4,4.5,3.3,7.2,5.6,8.1c2.3,0.9,5.5,0.2,9.6-2.1
			c2.8-1.5,4.9-5.5,7.6-10.5c1-1.9,2.1-4,3.4-6.2c-0.5-1.9-0.8-3.9-0.8-5.9v-8.4c-0.9,2.5-1.7,4.2-3.3,5.1c-0.5,0.3-1.9,1.1-3.4,0.5
			c-1.6-0.6-2.4-2.5-3-4.4c-1.7-5.2-2.7-19-3.1-43.2c-0.1-5.3-0.8-9.9-1.5-12.1c-0.6-2-2.3-3.7-4.7-4.7c-4.4-1.9-10.6-1.2-16.9,1.9
			c-2.2,1.1-3.8,2.5-4.7,4l2.2,8.5c0.2,0.9,0,1.8-0.5,2.6c-0.5,0.7-1.4,1.2-2.3,1.2c-0.7,0-1.7,0.4-3.3,1.1
			c-15.3,7.2-27.7,34.6-26.5,58.6c0,0.4,0,0.8-0.2,1.2c-5.3,14.6-11.7,24.4-17,26.4c-1.4,0.5-2.7,0.5-3.8,0
			c-1.1-0.5-1.9-1.6-2.3-3.1c-1.6-5.3-2.5-44.1-2.8-60.5c0-0.2,0-0.4,0.1-0.6c6.2-30.7,7.2-41.2,4.9-48.9c-1.1-3.7-2.9-6.2-5.2-7.4
			c-2.4-1.2-5.7-1.2-9.8,0.1c-15.2,4.9-22.4,23.9-18.5,48.3c1.9,11.7,3.6,27.4,5,40l0.6,5.3c0.2,2.1,0.4,5.3,0.6,8.8l0.2,3.5
			c0,0.4,0,0.9-0.2,1.3c-3.1,7.9-7.1,12.4-12.2,13.8c-1.6,0.4-3.2,0.4-4.6,0c-1.3-0.4-2.2-1.7-2.1-3.1c0.9-11.8,0.3-19.2-2.2-27.3
			c-2.5-8.4-8.8-16.3-15-14.9c-2.2,0.5-3.1,1.1-3.8,2c-0.6,0.8-1.6,1.2-2.7,1.1c-1-0.1-1.9-0.7-2.3-1.6c-2-3.9-7-4.5-11-3.8
			c-16,2.7-26.6,25.5-24.2,51.9c0.1,0.5,0,1.1-0.3,1.6c-6.5,13.8-16.2,22.7-25.4,23.2c-10.3,0.6-14-7.7-16.5-16.7
			c-4.8-17.7-3.6-30.4-0.4-34.7c1.1-1.5,2.4-1.9,3.2-1.9c2.4-0.1,4.7,2.3,5.6,5.7c0.8,3.1,1.5,7.8,1.7,12.6c1.8,1.7,4.1,2.5,7,2.3
			c2.9-0.2,5.4-1.7,7.3-4.4c3.1-4.4,3.8-11,1.9-17.7C177.1,273,169.7,267.1,158.7,267.1z M231.1,331.4c-3.4,0-8.1-2.1-11.1-12.6
			c-4.5-15.7-1-35.4,8.2-44.8c0.9-0.9,2.2-1.2,3.4-0.7c1.2,0.5,1.9,1.7,1.8,3c-0.4,6.1,1.1,14.7,2.7,20.1c1.6,5.6,3.8,10.7,6.7,15.7
			c0.3,0.5,0.5,1.2,0.4,1.8c-1,10-4.7,16.2-10.3,17.3l0,0C232.2,331.4,231.7,331.4,231.1,331.4z M229.2,278.9
			c-6.9,9.1-9.3,25.5-5.4,38.8c1.2,4,3.7,10.5,8.2,9.6l0,0c3.7-0.7,6.3-5.6,7.1-13.5c-3-5.2-5.2-10.5-6.9-16.3
			C230.6,292.4,229.2,285.1,229.2,278.9z M355.1,283.2c-0.6,0-1.3-0.1-1.9-0.4c-2-0.8-3.4-3-4.6-6.7c-4.5-14.3-0.1-32.3,6.5-42.8
			c0.7-1.1,1.9-1.6,3.1-1.3c1.3,0.3,2.2,1.3,2.4,2.5l5.3,37.2c0.1,0.5,0,1-0.2,1.5c-1.7,4.5-4.2,7.6-7,9
			C357.6,282.7,356.4,283.2,355.1,283.2z M357,237.9c-5.2,9.8-8.3,25.1-4.6,37c1.1,3.4,2,4.1,2.4,4.3c0.4,0.2,1,0,2.1-0.5l0,0
			c1.9-0.9,3.6-3.3,5-6.7L357,237.9z M187.4,261.2c-1.5,0-3.2-0.5-5.2-1.4c-2.1-0.9-3.8-3.2-4.9-6.5c-1.7-5-1.7-11.4-0.1-14.3
			c1.2-2.2,4.8-8.8,9.5-7.6c4.6,1.2,6.1,9.1,6.1,12.5c0,0.8,0.1,2,0.2,3.3c0.4,4.6,1,10.4-2.4,12.9
			C189.8,260.8,188.7,261.2,187.4,261.2z M180.8,241c-1,1.8-1,7,0.4,11.1c0.7,2.1,1.7,3.6,2.7,4.1c2.2,1,3.8,1.2,4.5,0.7
			c1.5-1.1,1.1-6.2,0.8-9.2c-0.1-1.4-0.3-2.6-0.3-3.7c0-3.6-1.7-8.3-3.1-8.6C185.2,235.2,183.4,236.2,180.8,241L180.8,241z
			 M228.9,234.2c-4.1,0-8.5-1.1-11-4.4c-2.5-3.2-2.6-7.7-0.4-13.3c-53.7-9.7-77.1,9.9-81.3,13.9h0c-1,0.9-2.4,1.1-3.6,0.4
			c-1.4-0.8-3.9-2.7-4.3-5.5c-0.3-1.9,0.4-3.8,2.1-5.7c1.2-4.6,5.8-9.3,13.7-13.9c6.9-4,16.1-7.9,26.6-11.1
			c21.7-6.7,43.5-9.3,55.5-6.7c27.1,6,24.3,19.2,21.9,30.9c-2.7,13.2-8.4,14-14.9,14.9l-1.1,0.1
			C231.2,234.1,230.1,234.2,228.9,234.2z M189.6,209.9c8.8,0,18.7,0.9,29.8,2.9c0.9,0.2,1.7,0.7,2.1,1.5c0.4,0.8,0.5,1.8,0.1,2.6
			c-1.4,3.3-2.6,7.8-0.6,10.5c2,2.6,6.7,3.2,10.6,2.6l1.1-0.2c6-0.8,9.4-1.3,11.5-11.8c2.4-11.7,4.4-21-18.9-26.1
			c-11.2-2.5-32.7,0.2-53.5,6.6c-21.3,6.6-36,15.3-37.6,22.3c-0.1,0.5-0.4,1-0.7,1.4c-0.9,1-1.4,1.8-1.2,2.6
			c0.1,0.7,0.7,1.5,1.7,2.2C138.6,222.8,155.5,209.9,189.6,209.9z M344,175.2c-3.6,0-9.4-1.7-13.5-11.5c-4.2-9.9-3.5-20.1,1.7-27.9
			l0,0c5-7.5,12.4-11,18.9-8.8c3.5,1.2,11.6,5.9,10.7,24.2c-0.6,12.1-7.5,22.4-15.9,23.9C345.4,175.2,344.7,175.2,344,175.2z
			 M347.3,130.4c-4.1,0-8.5,2.8-11.8,7.7c-6.3,9.5-3,20.1-1.3,24.2c2.7,6.5,6.6,9.7,11,8.9c5.7-1,12-8.8,12.6-20.1
			c0.6-10.8-2.4-18.4-7.9-20.2C349,130.5,348.1,130.4,347.3,130.4z M292.2,154.2c-1.8,0-3.7-0.4-5.6-1.3c-2.2-1-3.8-2.8-4.6-5.3
			c-1-3.1-0.7-7.2,0.9-10.2v0c5.8-10.6,13.1-10.1,16-9.3c4.3,1.1,7.7,4.7,7.7,8.3c0,3.7-2.5,12.1-8.4,16
			C296.4,153.6,294.4,154.2,292.2,154.2z M296.2,131.8c-3.6,0-7,2.7-9.7,7.6v0c-1.1,2-1.4,4.9-0.7,7c0.5,1.4,1.3,2.3,2.5,2.9
			c3,1.3,5.5,1.3,7.9-0.2c4.3-2.8,6.6-9.7,6.6-12.6c0-1.5-1.9-3.7-4.7-4.4C297.4,131.8,296.8,131.8,296.2,131.8z"/>
	</g>
	<g opacity="0.2">
		<g>
			<path fill="#FFFFFF" d="M390.7,75.5c0,0,2.8-2.6,2.8-2.6s-1.7,2.5-1.7,2.5c0,0-13.2-20.4-14-21.6c-0.8-1.1-3.3-1.8-3.4-0.4
				c-0.9,40.4,8,40.5,7.9,80.9c0,40.4-8,40.4-8.1,80.8c0,40.4,8,40.4,7.9,80.8c0,40.4-8,40.4-8.1,80.8s-3.8,39.2-2.9,79.6
				c0,1.7,10.3-4.4,11.1-5.8c0.9-1.4,11.1-15,11.1-15c0-36.3-8-36.3-8-72.5c0-36.3,8-36.3,8-72.5c0-36.3-8-36.3-8-72.5
				c0-36.3,9.3-36.4,8-72.7C392.2,108.8,390.7,111.8,390.7,75.5z"/>
		</g>
	</g>
	<g opacity="0.2">
		<g>
			<path fill="#FFFFFF" d="M142.5,87.8C142.4,85.8,140.8,86.8,142.5,87.8c1.7,1,21.8,9.6,25.5,10.5c3.7,0.9,53.3,8.4,53.3,9.4
				c1,30.3-8,30.4-8,60.7c0,30.3,8,30.3,8,60.6c0,30.3-8,30.3-8,60.6c0,30.3,8,30.3,8,60.6c0,30.3-8,30.3-8,60.6
				c0,30.3,11.1,30.9,8,61c-0.3,3.1-53.5-10.3-56-11.2c-2.5-0.8-28.5-11.7-28.5-12.6c-0.8-30.3,8-30.4,8-60.7c0-30.3-8-30.3-8-60.6
				c0-30.3,6.5-40.9,8-60.6c2.4-30.2,3.5-31.5-3.1-61.1c-4.3-19.3-6.1-30.8-4-61C139.8,112.1,143.3,110.1,142.5,87.8z"/>
		</g>
	</g>
	<g opacity="0.3">
		<g>
			<path fill="#FFFFFF" d="M154.2,89.3c-3.1,36.5-8,36.3-8,72.9c0,36.6,8,36.6,8,73.2c0,36.6-8,36.6-8,73.2c0,36.6,8,36.6,8,73.2
				s-10.9,37-8,73.5c0.3,3.2,11.9,3.9,14.9,4.9c3,1,14.9,7.6,15.2,4.5c3.1-36.2,8-36,8-72.4c0-36.4-8-36.4-8-72.7
				c0-36.4,8-36.4,8-72.7c0-36.4-8-36.4-8-72.7s10.9-36.8,8-73c-0.3-3.3-12.6-1.9-15.6-3.2C165.7,96.9,157.8,94.2,154.2,89.3z"/>
		</g>
	</g>
	<g>
		<g>
			<path fill="#6D4C41" d="M262.3,18c0.2,0,0.3,0,0.5,0c1.1,0,2.1,0,3.2,0c53.2,0.5,96.9,12,106.1,27.1l14.7,19.5
				c0.4,0.6,1.1,1.8,1.1,1.8c0.8,1.6,1.3,3.2,1.5,4.9c0,0,0.1,1,0.1,1.1c0,0.1,0,0.3,0,0.4v362.7h0c0,0.5,0,0.9-0.1,1.4
				c0,0.1,0,0.2,0,0.3c-0.1,0.5-0.2,0.9-0.3,1.4c0,0,0,0,0,0c-0.1,0.5-0.3,0.9-0.5,1.4c0,0,0,0.1,0,0.1c-0.4,1.1-1,2.2-1.8,3.2
				l-14.7,23.7c-9.4,15.4-55,27.1-109.9,27.1h-0.8c-54.8,0-100.4-11.7-109.9-27.1L137,443.2c-0.7-1.1-1.3-2.1-1.8-3.2
				c0,0,0-0.1,0-0.1c-0.2-0.5-0.3-0.9-0.5-1.4c0,0,0,0,0,0c-0.1-0.4-0.2-0.9-0.3-1.4c0-0.1,0-0.2,0-0.3c-0.1-0.4-0.1-0.9-0.1-1.4h0
				l0-364.1c0.2-1.6,0.7-3.3,1.5-4.9c0,0,0.7-1.2,1.1-1.8l14.7-19.5c9.2-15.1,53-26.6,106.1-27.1c1.1,0,2.1,0,3.2,0
				c0.2,0,0.3,0,0.5,0H262.3 M262.3,6h-0.8l-0.4,0L261,6c-1.1,0-2.2,0-3.3,0c-26.9,0.3-51.9,3.2-72.4,8.5
				c-22.4,5.8-37,13.8-43.5,23.8l-14.4,19.2l-0.1,0.1l-0.1,0.2c-0.6,0.9-1.3,2.1-1.7,2.7l-0.1,0.2l-0.1,0.2c-1.6,3-2.5,6.1-2.9,9.4
				l-0.1,0.6l0,0.6l0,352.2h0l0,12c0,0.9,0.1,1.8,0.2,2.8c0,0.2,0,0.4,0.1,0.6c0.1,0.9,0.3,1.8,0.5,2.7l0.1,0.3l0,0.1
				c0.2,0.8,0.5,1.5,0.8,2.3c0,0.1,0.1,0.2,0.1,0.3c0.7,1.8,1.7,3.6,2.8,5.3l14.5,23.5c6.4,10.5,21.6,18.8,45.2,24.7
				c21,5.2,47.6,8.1,74.9,8.1h0.8c27.3,0,53.8-2.9,74.9-8.1c23.6-5.9,38.8-14.2,45.2-24.7l14.5-23.4c1.2-1.7,2.1-3.5,2.9-5.3
				c0-0.1,0.1-0.2,0.1-0.3c0.3-0.8,0.6-1.5,0.8-2.3l0-0.1l0.1-0.3c0.2-0.9,0.4-1.8,0.6-2.7c0-0.2,0.1-0.4,0.1-0.6
				c0.1-1,0.2-1.9,0.2-2.8v-12h0V73c0-0.2,0-0.5,0-0.7c0-0.5,0-0.8-0.1-1.9l0-0.1l0-0.1c-0.3-3.2-1.3-6.4-2.9-9.4l-0.1-0.2l-0.1-0.2
				c-0.4-0.6-1.1-1.8-1.7-2.7l-0.1-0.2l-0.1-0.1l-14.4-19.2c-6.5-10-21.1-18-43.5-23.8C318.1,9.2,293,6.3,266.1,6
				c-1.1,0-2.2,0-3.3,0l-0.2,0L262.3,6L262.3,6z"/>
		</g>
		<g>
			<path fill="#6D4C41" d="M261.9,88.1c-56.1,0-115.7-13-115.7-37s59.6-37,115.7-37c56.1,0,115.7,13,115.7,37S318,88.1,261.9,88.1z
				 M261.9,22c-29.5,0-57.1,3.4-77.8,9.5C165.7,37,154.2,44.4,154.2,51s11.4,14.1,29.8,19.5c20.7,6.1,48.4,9.5,77.8,9.5
				s57.1-3.4,77.8-9.5c18.4-5.4,29.8-12.9,29.8-19.5S358.1,37,339.7,31.5C319,25.4,291.4,22,261.9,22z"/>
		</g>
		<g>
			<path fill="#6D4C41" d="M157,61.6l-4.2-4.3c14.7-14.6,58.6-24.5,109.1-24.5c50.6,0,94.4,9.8,109.1,24.5l-4.2,4.3
				c-13.5-13.4-56.6-22.7-104.9-22.7C213.6,38.9,170.5,48.2,157,61.6z"/>
		</g>
		<g>
			<path fill="#6D4C41" d="M261.9,113.1c-34.4,0-66.7-4-91.1-11.2c-25.9-7.6-39.5-17.9-39.5-29.6c0-2.5,0.6-4.9,1.9-7.3
				c0.1-0.2,0.8-1.4,1.3-2.1l14.6-19.5C159.6,26.7,205.8,15,261.5,15h0.8c55.8,0,101.9,11.7,112.3,28.4l14.6,19.4
				c0.5,0.7,1.2,2,1.3,2.1c1.3,2.5,2,4.9,2,7.4c0,11.7-13.7,21.9-39.5,29.6C328.6,109.1,296.3,113.1,261.9,113.1z M261.5,21
				c-59.5,0-99.7,13.2-107.3,25.7l-0.2,0.2l-14.7,19.5c-0.2,0.3-0.7,1.1-0.9,1.5c-0.8,1.4-1.2,2.9-1.2,4.4
				c0,8.4,13.2,17.3,35.2,23.8c23.8,7,55.6,10.9,89.4,10.9s65.5-3.9,89.4-10.9c22.1-6.5,35.2-15.4,35.2-23.8c0-1.5-0.4-3-1.2-4.5
				c-0.2-0.3-0.7-1.1-0.9-1.5l-14.8-19.7C362,34.2,321.8,21,262.3,21H261.5z"/>
		</g>
		<g>
			<path fill="#6D4C41" d="M261.9,476.7c-35.2,0-68.3-4.1-93.3-11.5c-26.5-7.8-40.4-18.3-40.4-30.2h6c0,8.6,13.5,17.8,36.1,24.5
				c24.4,7.2,57,11.2,91.6,11.2s67.2-4,91.6-11.2c22.6-6.7,36.1-15.8,36.1-24.5h6c0,11.9-14,22.4-40.4,30.2
				C330.3,472.6,297.1,476.7,261.9,476.7z"/>
		</g>
		<g>
			<path fill="#6D4C41" d="M261.9,73.3c-11.1,0-25.1-2.1-28.3-8.1l-5.7-8.5c-0.8-1.1-1.2-2.3-1.2-3.6c0-8.6,18.2-12.5,35.2-12.5
				s35.2,3.9,35.2,12.5c0,1.4-0.5,2.7-1.4,3.9l-5.5,8.1C287.2,71.2,273.1,73.3,261.9,73.3z M232.7,53.1c0,0,0,0.1,0.1,0.2l6,9.1
				c0.7,1.4,8.3,4.9,23,4.9c14.7,0,22.3-3.4,23-4.9l0.2-0.4l5.7-8.6c0.2-0.2,0.2-0.3,0.2-0.3c-0.4-1.7-9.9-6.5-29.2-6.5
				C242.7,46.6,233.1,51.3,232.7,53.1z"/>
		</g>
		<g>
			<ellipse fill="#D7CCC8" cx="261.9" cy="53.8" rx="18.4" ry="4"/>
			<path fill="#6D4C41" d="M261.9,59.8c-4.8,0-20.4-0.4-20.4-6s15.6-6,20.4-6c4.8,0,20.4,0.4,20.4,6S266.7,59.8,261.9,59.8z
				 M246.3,53.8c2.1,0.9,7.5,2,15.6,2s13.5-1.1,15.6-2c-2.1-0.9-7.5-2-15.6-2C253.8,51.7,248.4,52.9,246.3,53.8z"/>
		</g>
	</g>
</g>
</svg>
