<?xml version="1.0" encoding="utf-8"?>
<!-- Generator: Adobe Illustrator 19.0.1, SVG Export Plug-In . SVG Version: 6.00 Build 0)  -->
<!DOCTYPE svg PUBLIC "-//W3C//DTD SVG 1.1//EN" "http://www.w3.org/Graphics/SVG/1.1/DTD/svg11.dtd">
<svg version="1.1" id="drinks" xmlns="http://www.w3.org/2000/svg" xmlns:xlink="http://www.w3.org/1999/xlink" x="0px" y="0px"
	 width="512px" height="512px" viewBox="0 0 512 512" enable-background="new 0 0 512 512" xml:space="preserve">
<g id="Water">
	<g>
		<g>
			<path fill="#81C784" d="M209.2,38.5v35.9c0,4.6,4.4,8.9,11.7,12c8.1,3.5,19.7,5.7,32.6,5.8c12.9,0,24.5-2.2,32.6-5.8
				c7.3-3.2,11.7-7.4,11.7-12V38.5"/>
		</g>
		<g>
			<path fill="#90CAF9" d="M298.6,128c5.1,3.2,11.4,10.8,11.4,10.8c5,6.1,7.7,13.7,7.7,21.6l0.1,289c0,5.2-2.8,9.9-7.3,12.4
				c-1.2,0.7-2.7,1.4-4.3,2.1c-13.2,5.8-32.4,9.1-52.7,9.1c-20.3,0-39.5-3.3-52.7-9.1c-1.6-0.7-3-1.4-4.3-2.1
				c-4.5-2.5-7.3-7.3-7.3-12.4l0.1-289c0-7.8,2.7-15.5,7.7-21.6c0,0,6.3-7.7,11.4-10.8"/>
		</g>
		<g>
			<circle fill="#E3F2FD" cx="214.9" cy="178.8" r="5"/>
			<path fill="#FAFAFA" d="M214.9,184.3c-3,0-5.5-2.5-5.5-5.5s2.5-5.5,5.5-5.5s5.5,2.5,5.5,5.5S217.9,184.3,214.9,184.3z
				 M214.9,174.3c-2.5,0-4.5,2-4.5,4.5s2,4.5,4.5,4.5s4.5-2,4.5-4.5S217.3,174.3,214.9,174.3z"/>
		</g>
		<g>
			<circle fill="#E3F2FD" cx="279" cy="214.9" r="5"/>
			<path fill="#FAFAFA" d="M279,220.4c-3,0-5.5-2.5-5.5-5.5s2.5-5.5,5.5-5.5s5.5,2.5,5.5,5.5S282,220.4,279,220.4z M279,210.4
				c-2.5,0-4.5,2-4.5,4.5s2,4.5,4.5,4.5s4.5-2,4.5-4.5S281.5,210.4,279,210.4z"/>
		</g>
		<g>
			<circle fill="#E3F2FD" cx="208.4" cy="379" r="5"/>
			<path fill="#FAFAFA" d="M208.4,384.5c-3,0-5.5-2.5-5.5-5.5s2.5-5.5,5.5-5.5s5.5,2.5,5.5,5.5S211.5,384.5,208.4,384.5z
				 M208.4,374.5c-2.5,0-4.5,2-4.5,4.5s2,4.5,4.5,4.5s4.5-2,4.5-4.5S210.9,374.5,208.4,374.5z"/>
		</g>
		<g>
			<circle fill="#E3F2FD" cx="297.9" cy="421" r="5"/>
			<path fill="#FAFAFA" d="M297.9,426.5c-3,0-5.5-2.5-5.5-5.5s2.5-5.5,5.5-5.5s5.5,2.5,5.5,5.5S300.9,426.5,297.9,426.5z
				 M297.9,416.5c-2.5,0-4.5,2-4.5,4.5s2,4.5,4.5,4.5s4.5-2,4.5-4.5S300.3,416.5,297.9,416.5z"/>
		</g>
		<g>
			<circle fill="#E3F2FD" cx="297.9" cy="173.8" r="5"/>
			<path fill="#FAFAFA" d="M297.9,179.3c-3,0-5.5-2.5-5.5-5.5s2.5-5.5,5.5-5.5s5.5,2.5,5.5,5.5S300.9,179.3,297.9,179.3z
				 M297.9,169.3c-2.5,0-4.5,2-4.5,4.5s2,4.5,4.5,4.5s4.5-2,4.5-4.5S300.3,169.3,297.9,169.3z"/>
		</g>
		<g>
			<path fill="#78909C" d="M187.2,453.8c0-5.9,3.2-11.4,8.3-14.2c1.4-0.7,2.9-1.5,4.4-2.2c13.5-5.9,33-9.3,53.5-9.3
				c20.5,0,40,3.4,53.5,9.3c1.6,0.7,3.1,1.4,4.4,2.2c5.1,2.8,8.3,8.2,8.3,14.2l-4,0c0-4.5-2.4-8.5-6.3-10.7c-1.3-0.7-2.7-1.4-4.1-2
				c-13-5.7-31.9-8.9-51.9-8.9c-20,0-38.9,3.3-51.9,8.9c-1.5,0.6-2.9,1.3-4.1,2c-3.9,2.1-6.3,6.2-6.3,10.7L187.2,453.8z"/>
		</g>
		<g>
			<path fill="#E3F2FD" d="M203.9,131.9c-1.7,2.1-2.6,4.3-2.6,6.6c0,5.5,5.2,10.5,13.8,14.2c9.5,4.2,23.2,6.8,38.4,6.8
				c15.2,0,28.9-2.6,38.4-6.8c8.5-3.7,13.8-8.7,13.8-14.2c0-5.5-5.2-10.5-13.8-14.2c-9.5-4.2-23.2-6.8-38.4-6.8
				c-15.2,0-28.9,2.6-38.4,6.8C210.1,126.5,206.3,129.1,203.9,131.9"/>
		</g>
		<g>
			<path fill="#C8E6C9" d="M253.4,20.7c-12.9,0-24.5,2.2-32.6,5.8c-7.3,3.2-11.7,7.4-11.7,12s4.4,8.9,11.7,12
				c8.1,3.5,19.7,5.7,32.6,5.8c12.9,0,24.5-2.2,32.6-5.8c7.3-3.2,11.7-7.4,11.7-12s-4.4-8.9-11.7-12C277.9,23,266.3,20.7,253.4,20.7
				"/>
		</g>
		<g>
			<path fill="#FAFAFA" d="M253.4,350c12.1,0,24-5.9,24-24.5c0-25.2-17.9-48.3-24-69.5c-6,21.2-24,44.3-24,69.5
				C229.4,344.1,241.3,350,253.4,350z"/>
		</g>
	</g>
	<g>
		<g>
			<path fill="#78909C" d="M214.9,185.8c-3.9,0-7-3.1-7-7s3.1-7,7-7s7,3.1,7,7S218.7,185.8,214.9,185.8z M214.9,175.8
				c-1.7,0-3,1.3-3,3s1.3,3,3,3s3-1.3,3-3S216.5,175.8,214.9,175.8z"/>
		</g>
		<g>
			<path fill="#78909C" d="M279,221.9c-3.9,0-7-3.1-7-7s3.1-7,7-7s7,3.1,7,7S282.9,221.9,279,221.9z M279,211.9c-1.7,0-3,1.3-3,3
				s1.3,3,3,3s3-1.3,3-3S280.6,211.9,279,211.9z"/>
		</g>
		<g>
			<path fill="#78909C" d="M208.4,386c-3.9,0-7-3.1-7-7s3.1-7,7-7s7,3.1,7,7S212.3,386,208.4,386z M208.4,376c-1.7,0-3,1.3-3,3
				s1.3,3,3,3s3-1.3,3-3S210.1,376,208.4,376z"/>
		</g>
		<g>
			<path fill="#78909C" d="M297.9,428c-3.9,0-7-3.1-7-7s3.1-7,7-7s7,3.1,7,7S301.7,428,297.9,428z M297.9,418c-1.7,0-3,1.3-3,3
				s1.3,3,3,3s3-1.3,3-3S299.5,418,297.9,418z"/>
		</g>
		<g>
			<path fill="#78909C" d="M297.9,180.8c-3.9,0-7-3.1-7-7s3.1-7,7-7s7,3.1,7,7S301.7,180.8,297.9,180.8z M297.9,170.8
				c-1.7,0-3,1.3-3,3s1.3,3,3,3s3-1.3,3-3S299.5,170.8,297.9,170.8z"/>
		</g>
		<g>
			<path fill="#78909C" d="M253.4,354c-17.5,0-28-10.7-28-28.5c0-16.8,7.3-32.2,14.4-47.1c3.9-8.3,7.6-16,9.8-23.5l3.8-13.5
				l3.8,13.5c2.1,7.5,5.8,15.3,9.8,23.5c7.1,14.9,14.4,30.3,14.4,47.1C281.4,343.3,271,354,253.4,354z M253.4,267.9
				c-1.9,4.6-4.1,9.2-6.4,14c-6.7,14.1-13.6,28.6-13.6,43.7c0,16.9,10.9,20.5,20,20.5c9.1,0,20-3.6,20-20.5c0-15-6.9-29.6-13.6-43.6
				C257.6,277.1,255.4,272.4,253.4,267.9z"/>
		</g>
		<g>
			<path fill="#78909C" d="M253.4,60.3c-13.1,0-25.2-2.2-34.2-6.1c-9.1-4-14.1-9.5-14.1-15.7c0-6.2,5-11.7,14.1-15.7
				c9-3.9,21.1-6.1,34.2-6.1h0c13.1,0,25.2,2.2,34.2,6.1c9.1,4,14.1,9.5,14.1,15.7c0,6.2-5,11.7-14.1,15.7
				C278.6,58.2,266.5,60.3,253.4,60.3z M253.4,24.7c-11.8,0-23.1,2-31,5.4c-5.8,2.5-9.3,5.7-9.3,8.4c0,2.7,3.5,5.8,9.3,8.4
				c7.9,3.4,19.2,5.4,31,5.4c11.8,0,23.1-2,31-5.4c5.8-2.5,9.3-5.7,9.3-8.4c0-2.7-3.5-5.8-9.3-8.4C276.5,26.7,265.3,24.7,253.4,24.7
				L253.4,24.7z"/>
		</g>
		<g>
			<path fill="#78909C" d="M253.4,97.3c-13.2,0-25.5-2.2-34.6-6.2c-9.5-4.1-14.7-10-14.7-16.6h10c0,1.7,2.3,4.7,8.7,7.5
				c7.8,3.4,18.9,5.3,30.6,5.3c11.7,0,22.8-1.9,30.6-5.3c6.4-2.8,8.7-5.8,8.7-7.5h10c0,6.6-5.2,12.5-14.7,16.6
				C278.9,95.1,266.6,97.3,253.4,97.3z"/>
		</g>
		<g>
			<path fill="#78909C" d="M253.4,477c-20.8,0-40.6-3.4-54.3-9.4c-1.6-0.7-3.2-1.5-4.6-2.2c-5.8-3.2-9.4-9.3-9.4-15.9l0.1-289
				c0-8.8,3.1-17.3,8.6-24.1c0.3-0.3,6.8-8.2,12.3-11.7l4.2,6.8c-3.7,2.3-8.8,8-10.4,10c-4.4,5.3-6.8,12.1-6.8,19l-0.1,289
				c0,3.7,2,7.1,5.2,8.9c1.2,0.7,2.5,1.3,4,1.9c12.7,5.6,31.3,8.8,51.1,8.8c19.7,0,38.3-3.2,51.1-8.8c1.4-0.6,2.8-1.3,4-1.9
				c3.2-1.8,5.2-5.2,5.2-8.9l-0.1-289c0-6.9-2.4-13.7-6.8-19c-1.6-2-6.7-7.7-10.4-10l4.2-6.8c5.5,3.5,12.1,11.4,12.3,11.7
				c5.6,6.8,8.6,15.3,8.6,24.1l0.1,289c0,6.7-3.6,12.8-9.4,15.9c-1.4,0.8-3,1.5-4.6,2.2C294,473.6,274.2,477,253.4,477z"/>
		</g>
		<g>
			<path fill="#78909C" d="M187.2,453.8c0-5.9,3.2-11.4,8.3-14.2c1.4-0.7,2.9-1.5,4.4-2.2c13.5-5.9,33-9.3,53.5-9.3
				c20.5,0,40,3.4,53.5,9.3c1.6,0.7,3.1,1.4,4.4,2.2c5.1,2.8,8.3,8.2,8.3,14.2l-4,0c0-4.5-2.4-8.5-6.3-10.7c-1.3-0.7-2.7-1.4-4.1-2
				c-13-5.7-31.9-8.9-51.9-8.9c-20,0-38.9,3.3-51.9,8.9c-1.5,0.6-2.9,1.3-4.1,2c-3.9,2.1-6.3,6.2-6.3,10.7L187.2,453.8z"/>
		</g>
		<g>
			<path fill="#78909C" d="M253.4,163.5c-15.3,0-29.5-2.5-40-7.1c-10.4-4.6-16.2-10.9-16.2-17.9c0-3.2,1.2-6.3,3.6-9.1l0,0
				c2.7-3.3,7-6.3,12.6-8.7c10.5-4.6,24.7-7.1,40-7.1c15.3,0,29.5,2.5,40,7.1c10.4,4.6,16.2,10.9,16.2,17.9c0,7-5.7,13.3-16.2,17.9
				C282.9,161,268.7,163.5,253.4,163.5z M207,134.5c-1.1,1.4-1.7,2.8-1.7,4.1c0,3.5,4.3,7.4,11.4,10.5c9.4,4.1,22.8,6.4,36.8,6.4
				c14,0,27.4-2.4,36.8-6.4c7.1-3.1,11.4-7,11.4-10.5c0-3.5-4.3-7.4-11.4-10.5c-9.4-4.1-22.8-6.4-36.8-6.4c-14,0-27.4,2.4-36.8,6.4
				C212.2,129.9,208.9,132.2,207,134.5L207,134.5z"/>
		</g>
		<g opacity="0.5">
			<path fill="#FAFAFA" d="M217.6,117.6c-12.1,4.4-42.1,10.4-33.6,73.4c8.8,65.5,16,83.5,12,103.5c-4,20-15.5,74.5-12.2,103.5
				c3.3,29,8.7,55.8,12.7,68c2.9,8.9,33,11,33,11s-12.1-50-12.5-73s9-90,0.5-132.5c-7.7-38.6-4.9-53.6-4.3-71.5
				c0.6-17.9,0.3-44,11.3-56.5s15.5-19.8,15.5-19.8S222.9,121,217.6,117.6z"/>
		</g>
		<g>
			<path fill="#FAFAFA" d="M214.9,120.7c0,0-19.9,11.3-23.7,24c-5.2,17-1.9,29.1-1.9,29.1l14.2,5c0,0,0.3-23.8,11.4-36.8
				s14.6-17,14.6-17L214.9,120.7z"/>
		</g>
		<g opacity="0.5">
			<path fill="#FAFAFA" d="M274,492.9c0,0,27.8-6.5,32.1-29c4.3-22.5,7.4-122.3,7.4-122.3s-20-115.8-7.9-148.5
				c12-32.7,28.1-43.9,28.1,26.8c0,70.7,11.5,225.2,0,241.8S294.5,491.9,274,492.9z"/>
		</g>
		<g>
			<path fill="#78909C" d="M253.4,502c-23.8,0-45.9-3.9-62.3-11.1c-16.8-7.3-26-17.7-26-29.2c0-306.8,0-307.4,0-307.6
				c0.6-16.6,9.5-32.2,23.7-41.7c15.1-10.1,17.6-15.1,17.9-15.9v-6.6c-4.6-4.5-5.7-9.1-5.7-12.4V38.5c0-4.5,2.1-13.1,16.5-19.4
				c9.5-4.1,22.2-6.4,35.8-6.4c13.6,0,26.3,2.3,35.8,6.4c14.3,6.3,16.5,14.8,16.5,19.4v38.9c0,3.3-1.1,7.9-5.7,12.4v6.6
				c0.3,0.8,2.8,5.8,17.9,15.9c14.2,9.5,23.1,25.1,23.7,41.7v0c0,0.2,0,0.8,0,307.6c0,11.5-9.2,21.9-26,29.2
				C299.3,498.1,277.2,502,253.4,502z M181.2,154.6c0,7,0,304.1,0,307.1c0,4.5,6.3,10.1,16.4,14.5c14.2,6.2,34.6,9.8,55.9,9.8
				c21.3,0,41.7-3.6,55.9-9.8c10.1-4.4,16.4-10,16.4-14.5c0-3,0-300,0-307.1c-0.5-11.4-6.7-22.2-16.6-28.9c-22.4-15-25-23.7-25-28.9
				V82.1l3.4-2.4c1.8-1.3,2.2-2.1,2.3-2.3V38.6c-0.2-0.6-1.9-2.6-6.9-4.8c-7.4-3.2-18.1-5.1-29.4-5.1c-11.3,0-22,1.9-29.4,5.1
				c-5,2.2-6.6,4.2-6.9,4.8v38.7c0.1,0.2,0.5,1.1,2.3,2.3l3.4,2.4v14.7c0,5.2-2.6,13.9-25,28.9C187.9,132.4,181.7,143.2,181.2,154.6
				z"/>
		</g>
	</g>
</g>
</svg>
